<?xml version="1.0" encoding="utf-8"?>
<!-- Generator: Adobe Illustrator 23.0.4, SVG Export Plug-In . SVG Version: 6.00 Build 0)  -->
<svg version="1.1" id="Layer_1" xmlns="http://www.w3.org/2000/svg" xmlns:xlink="http://www.w3.org/1999/xlink" x="0px" y="0px"
	 viewBox="0 0 600 300" style="enable-background:new 0 0 600 300;" xml:space="preserve">
<style type="text/css">
	.st0{fill:#A0D4B8;}
	.st1{fill:#F4E8C1;}
</style>
<g id="owlOpen">
	<g>
		<g>
			<circle class="st1" cx="215.46" cy="90.77" r="4.78"/>
			<path class="st1" d="M274.88,57.86c-16.7,10.03-27.89,28.31-27.89,49.16h-9.55c0-20.84-11.2-39.13-27.89-49.16
				c-9.29,8.71-15.09,21.09-15.09,34.83c0,26.38,21.38,47.76,47.76,47.76s47.76-21.38,47.76-47.76
				C289.97,78.95,284.16,66.57,274.88,57.86z M215.46,103.19c-6.84,0-12.42-5.58-12.42-12.42c0-6.84,5.58-12.42,12.42-12.42
				c6.84,0,12.42,5.58,12.42,12.42C227.88,97.61,222.3,103.19,215.46,103.19z M268.95,103.19c-6.84,0-12.42-5.58-12.42-12.42
				c0-6.84,5.58-12.42,12.42-12.42c6.84,0,12.42,5.58,12.42,12.42C281.37,97.61,275.79,103.19,268.95,103.19z M268.95,86
				c-2.64,0-4.78,2.14-4.78,4.78c0,2.64,2.14,4.78,4.78,4.78c2.64,0,4.78-2.14,4.78-4.78C273.73,88.14,271.59,86,268.95,86z"/>
			<path class="st1" d="M242.21,82.24c4.99-12.46,13.62-23.06,24.57-30.52c-7.18-4.31-15.58-6.8-24.57-6.8s-17.39,2.49-24.57,6.8
				C228.59,59.18,237.22,69.79,242.21,82.24z"/>
		</g>
		<g>
			<path class="st1" d="M277.55,194.9c0.32,0,0.63-0.04,0.96-0.05v-59.44c-9.58,10.15-23.15,16.5-38.21,16.5
				c-1.08,0-2.15-0.08-3.22-0.14c-0.05,0.84-0.13,1.68-0.13,2.53C236.95,176.69,255.17,194.9,277.55,194.9z"/>
			<path class="st1" d="M277.55,204.45c-27.65,0-50.15-22.5-50.15-50.15c0-1.34,0.07-2.67,0.17-3.98
				c-19.72-4.91-35.04-20.94-38.88-41.07c-8.93,12.94-14.31,27.81-14.31,43.62c0,50.12,54,90.75,104.12,90.75v-39.19
				C278.19,204.43,277.87,204.45,277.55,204.45z"/>
		</g>
	</g>
	<g>
		<circle class="st1" cx="384.54" cy="90.77" r="4.78"/>
		<path class="st1" d="M310.03,92.68c0,26.38,21.38,47.76,47.76,47.76s47.76-21.38,47.76-47.76c0-13.74-5.81-26.12-15.09-34.83
			c-16.7,10.03-27.89,28.31-27.89,49.16h-9.55c0-20.84-11.2-39.13-27.89-49.16C315.84,66.57,310.03,78.95,310.03,92.68z
			 M372.12,90.77c0-6.84,5.58-12.42,12.42-12.42s12.42,5.58,12.42,12.42c0,6.84-5.58,12.42-12.42,12.42S372.12,97.61,372.12,90.77z
			 M318.63,90.77c0-6.84,5.58-12.42,12.42-12.42c6.84,0,12.42,5.58,12.42,12.42c0,6.84-5.58,12.42-12.42,12.42
			C324.21,103.19,318.63,97.61,318.63,90.77z M326.27,90.77c0,2.64,2.14,4.78,4.78,4.78c2.64,0,4.78-2.14,4.78-4.78
			c0-2.64-2.14-4.78-4.78-4.78C328.41,86,326.27,88.14,326.27,90.77z"/>
		<path class="st1" d="M357.79,82.24c-4.99-12.46-13.62-23.06-24.57-30.52c7.18-4.31,15.58-6.8,24.57-6.8s17.39,2.49,24.57,6.8
			C371.41,59.18,362.78,69.79,357.79,82.24z"/>
	</g>
	<path class="st1" d="M322.45,194.9c-0.32,0-0.63-0.04-0.96-0.05v-59.44c9.58,10.15,23.15,16.5,38.21,16.5
		c1.08,0,2.15-0.08,3.22-0.14c0.05,0.84,0.13,1.68,0.13,2.53C363.05,176.69,344.83,194.9,322.45,194.9z"/>
	<path class="st1" d="M288.06,241.7L288.06,241.7V127.07l0,0c5.28,0,9.55,4.28,9.55,9.55v95.53
		C297.61,237.43,293.34,241.7,288.06,241.7z"/>
	<path class="st1" d="M310.99,241.7L310.99,241.7V127.07l0,0c-5.28,0-9.55,4.28-9.55,9.55v95.53
		C301.43,237.43,305.71,241.7,310.99,241.7z"/>
	<g>
		<path class="st1" d="M309.99,245.53c-4.07,0-7.6-2.33-9.32-5.73h-2.28c-1.73,3.4-5.25,5.73-9.32,5.73h-0.83
			c0.91,5.42,5.61,9.55,11.29,9.55s10.38-4.13,11.29-9.55H309.99z"/>
	</g>
	<path class="st1" d="M322.45,204.45c27.65,0,50.15-22.5,50.15-50.15c0-1.34-0.07-2.67-0.17-3.98
		c19.72-4.91,35.04-20.94,38.88-41.07c8.93,12.94,14.31,27.81,14.31,43.62c0,50.12-54,90.75-104.12,90.75v-39.19
		C321.81,204.43,322.13,204.45,322.45,204.45z"/>
	<g>
		<g>
			<path class="st1" d="M485.1,109.88c0,26.38-21.38,47.76-47.76,47.76c-0.36,0-0.75,0-1.11-0.02c0.1-1.57,0.15-3.15,0.15-4.76
				c0-15.57-5.22-30.19-13.89-42.99H485.1z"/>
			<g>
				<path class="st1" d="M594,109.88c0,3.71-1.49,7.03-3.92,9.46c-2.43,2.43-5.75,3.92-9.46,3.92h-87.64
					c1.09-4.26,1.66-8.71,1.66-13.3L594,109.88z"/>
				<path class="st1" d="M582.54,127.07c0,3.71-1.49,7.03-3.92,9.46c-2.43,2.43-5.75,3.92-9.46,3.92h-83.93
					c2.79-4.09,5.04-8.58,6.63-13.37H582.54z"/>
				<path class="st1" d="M567.25,144.27v2.06c0,6.25-5.06,11.31-11.31,11.31h-89.97c6.3-3.34,11.86-7.91,16.37-13.37H567.25z"/>
				<path class="st1" d="M548.15,161.46c0,3.71-1.49,7.03-3.92,9.46c-2.43,2.43-5.75,3.92-9.46,3.92H433.52l1.91-11.46
					c4.8-0.21,17.06-0.54,21.44-1.91H548.15z"/>
			</g>
		</g>
		<g>
			<path class="st1" d="M114.9,109.88c0,26.38,21.38,47.76,47.76,47.76c0.36,0,0.75,0,1.11-0.02c-0.1-1.57-0.15-3.15-0.15-4.76
				c0-15.57,5.22-30.19,13.89-42.99H114.9z"/>
			<g>
				<path class="st1" d="M6,109.88c0,3.71,1.49,7.03,3.92,9.46c2.43,2.43,5.75,3.92,9.46,3.92h87.64c-1.09-4.26-1.66-8.71-1.66-13.3
					L6,109.88z"/>
				<path class="st1" d="M17.46,127.07c0,3.71,1.49,7.03,3.92,9.46c2.43,2.43,5.75,3.92,9.46,3.92h83.93
					c-2.79-4.09-5.04-8.58-6.63-13.37H17.46z"/>
				<path class="st1" d="M32.75,144.27v2.06c0,6.25,5.06,11.31,11.31,11.31h89.97c-6.3-3.34-11.86-7.91-16.37-13.37H32.75z"/>
				<path class="st1" d="M51.85,161.46c0,3.71,1.49,7.03,3.92,9.46c2.43,2.43,5.75,3.92,9.46,3.92h101.26l-1.91-11.46
					c-4.8-0.21-17.06-0.54-21.44-1.91H51.85z"/>
			</g>
		</g>
	</g>
</g>
</svg>
